<svg width="64" height="64" viewBox="0 0 64 64" fill="none" xmlns="http://www.w3.org/2000/svg">
<rect width="64" height="64" rx="20" fill="white"/>
<path d="M38.2857 10C39.9619 10 41.6762 10.1504 43.4286 10.4513C45.219 10.7145 46.8762 11.0718 48.4 11.5231C49.9238 11.9744 51.1238 12.4632 52 12.9897L46.8571 29.1795C46.8571 27.7504 46.2857 26.6974 45.1429 26.0205C44 25.306 42.7619 24.9487 41.4286 24.9487C40.819 24.9487 40.2476 25.0051 39.7143 25.1179C39.181 25.2308 38.7048 25.4 38.2857 25.6256C37.8667 25.8137 37.5048 26.0769 37.2 26.4154C36.9333 26.7538 36.7238 27.1487 36.5714 27.6C36.419 28.0513 36.3429 28.559 36.3429 29.1231C36.3429 29.1231 36.3429 29.1419 36.3429 29.1795C36.381 29.1795 36.4 29.1795 36.4 29.1795H46.8571L42.7429 42.2667H36.4C36.3619 42.2667 36.3429 42.2667 36.3429 42.2667C36.3429 42.2667 36.3429 42.2855 36.3429 42.3231C36.3429 43.8273 36.3429 45.1812 36.3429 46.3846C36.3429 47.5504 36.3429 48.735 36.3429 49.9385C36.3429 51.1419 36.3429 52.4957 36.3429 54H16.4C16.4 52.4957 16.4 51.1419 16.4 49.9385C16.4 48.735 16.4 47.5504 16.4 46.3846C16.4 45.1812 16.4 43.8273 16.4 42.3231C16.4 42.2855 16.4 42.2667 16.4 42.2667C16.4 42.2667 16.381 42.2667 16.3429 42.2667H12C12.4952 40.8 12.9905 39.3521 13.4857 37.9231C13.981 36.4564 14.4571 34.9897 14.9143 33.5231C15.4095 32.0564 15.9048 30.6085 16.4 29.1795V28.6154C16.4 24.8923 17.2952 21.6393 19.0857 18.8564C20.8762 16.0359 23.4095 13.8547 26.6857 12.3128C29.9619 10.7709 33.8286 10 38.2857 10Z" fill="black"/>
</svg>
